<?xml version="1.0" ?><svg id="图层_1" version="1.1" viewBox="0 0 4000 4000" xml:space="preserve" xmlns="http://www.w3.org/2000/svg"><style>.st0,.st1,.st4,.st5{fill-rule:evenodd;clip-rule:evenodd;fill:#afc6f8}.st1,.st4,.st5{fill:#24245b}.st4,.st5{fill:#006cff}.st5{fill:#f99382}.st6{fill:none;stroke:#24245b;stroke-width:8.3333;stroke-linecap:round;stroke-linejoin:round;stroke-miterlimit:12.5}.st7{fill-rule:evenodd;clip-rule:evenodd;fill:#c57dba}.st9{fill:none;stroke:#000;stroke-width:8.3333;stroke-linecap:round;stroke-linejoin:round;stroke-miterlimit:12.5}</style><g id="_41"><g id="图层1"><path class="st0" d="M1321.9 3073.8h1444.2l487.3-1540.1c14.6-46.2-10.5-95.6-56.5-110.9-234.3-78.3-900.3-300.6-1137.8-379.9-22.6-7.5-47.2-5.7-68.4 5.1-21.2 10.8-37.2 29.6-44.3 52.3l-624.5 1973.5z"/><path class="st0" d="M1254.8 3073.8H2710l-665.6-1953.2c-7.7-22.5-24.1-41-45.5-51.3-21.4-10.3-46.1-11.6-68.5-3.5-235.9 84.8-896.8 322.6-1129.3 406.2-45.6 16.4-69.6 66.3-54 112.1l507.7 1489.7z"/><path class="st1" d="M3052.8 2009.6c-289.2 125.1-620.4-133.5-620.4-133.5l175.4-417.4 503.1 156.2c-59 197.6 57.3 320.3 57.3 320.3-19.1 17.1-38.6 31.8-58.5 44.4-39.2-33.4-57.1-88.8-57.1-88.8-12.6 52.1-7.7 92 .2 118.8zM2919.4 1199.6s-40.9-104.7 47.4-162.3c86.8-56.7 140.7-8.7 135.6 40.8-5.8 56.3-64.1 166.3-104.6 159.3-76.7-13.5-78.4-37.8-78.4-37.8z"/><path class="st1" d="M2692.2 1368.4s193.2 68.6 409.3 137.2l30.7 8.1c64-253-203.8-400.7-312.4-294.1 0 0-90.1-21.1-157.3 119.7-12 15-6.1 42.6 29.7 29.1z"/><path clip-rule="evenodd" d="M1385 3073.8h1398.4l-65.4-341.9c8.3-457.1-77.2-682.7-170.3-889.8 0 0-121.9-636.8-167.2-873.4a88.42 88.42 0 00-37.3-56.7c-19.5-13.2-43.4-18.2-66.5-13.7-243.8 46.7-930.8 178.2-1174.7 224.9a88.42 88.42 0 00-56.7 37.3c-13.2 19.5-18.2 43.4-13.7 66.5 46.8 244.5 175.9 919.1 175.9 919.1-22.4 30.3-17.9 54.1 13.6 71.3l163.9 856.4z" fill="#ffebe2" fill-rule="evenodd"/><path clip-rule="evenodd" d="M1597 1869.3c-89-55.2-156-147.3-177.5-259.9-40.3-210.3 93.2-412.8 297.9-452s403.5 99.7 443.8 310c21.3 111-5.9 219.9-66.5 303.7-98.6 52-357.1 115.6-497.7 98.2z" fill="#fff" fill-rule="evenodd"/><path class="st4" d="M1597 1869.3c59.7-46.2 142.6-83.6 237.6-102.6 96-19.2 187.5-16.1 260.1 4.4-54.1 74.9-134.8 129.8-231.4 148.3-95.2 18.3-189.1-2-266.3-50.1z"/><path class="st5" d="M1889.7 1664.3s24.9 98 25.1 98.8c3.9 23.5-22.9 54.5-69.7 62.7-46.7 8.2-79.8-7-83.7-30.5-.1-.5-16.5-103-16.5-103l144.8-28z"/><path class="st1" d="M1821.8 1712.4s43.6 10.2 78.3-7.1l-8-31.4-70.3 38.5z"/><path class="st5" d="M1912.4 1439s6.5-26.3 39.2-33c32.7-6.7 58.4 9.6 63 41.6 6.3 43.5-21.3 85.5-84.4 77.2l-17.8-85.8zM1636.7 1499.2s-16.3-21.6-48.9-14.9c-32.7 6.7-49.9 31.8-41.6 63 11.3 42.5 53.2 70.3 108 37.8l-17.5-85.9z"/><path class="st5" d="M1742.2 1290.3c89.3-17.8 179.6 62.3 201.6 178.8 22 116.5-32.7 225.5-121.9 243.3-89.3 17.8-179.6-62.3-201.6-178.8-22-116.5 32.6-225.5 121.9-243.3z"/><path class="st1" d="M1859 1352.7s-77 116.8-242.9 147.8c0 0-27.4-39.7-27.1-110.7.3-69.8 103.3-149.3 231.6-134 0 0 39.7 8.5 48.7 50.3 0 0 27.3-11.7 46.7 5.5 14.7 13 31.2 76.9 15.4 112.5-52.2-5.7-65.6-55.6-72.4-71.4z"/><path class="st6" d="M1771.6 1472.9s5.3 57.6 7.2 77.7c.4 3.8 3.6 6.7 7.5 6.5 4.8-.2 10.3-.4 10.3-.4M1975.7 1434.1c-10.7 18.5-13.2 38.1-10.1 58.4M1965.2 1464.6c7.2-6.8 21.3-9.6 32.4-9.7M1581.4 1513.7c17 12.9 26.9 30 32 50M1603 1537.8c-9.2-3.5-23.4-.6-33.6 3.6M1846.3 1577.6s-2.8 39.4-42.1 47.4"/><path class="st1" d="M1841.5 1474.3c5.3-1 10.7 3.7 12 10.4 1.3 6.8-2 13.1-7.3 14.1s-10.7-3.7-12-10.4c-1.3-6.8 2-13.1 7.3-14.1zM1717.1 1497.8c5.3-1 10.7 3.7 12 10.4 1.3 6.8-2 13.1-7.4 14.1-5.3 1-10.7-3.7-12-10.4-1.2-6.8 2.1-13.1 7.4-14.1z"/><path class="st6" d="M1816.6 1444.5s25-21.5 47.9-2.7M1734.7 1462.9s-31.2-10.7-45.5 15.2"/><path class="st0" d="M2388.1 1960.7l-985.6 188.7 18.6 97.3 985.6-188.7-18.6-97.3zM2462.6 2349.8L1477 2538.5l18.6 97.3 985.7-188.7-18.7-97.3zM2425.4 2155.3L1439.7 2344l18.6 97.3 985.6-188.7-18.5-97.3zM2499.9 2544.4l-985.6 188.7 18.6 97.3 985.6-188.7-18.6-97.3z"/><path class="st7" d="M1663.6 2904.7l24 44.3 48.3-9.2-33.5 36.7 24 44.3-44.7-21.7-33.5 36.6 5.9-50.1-44.7-21.7 48.3-9.2 5.9-50zM2043 2832.1l24 44.3 48.3-9.3-33.5 36.7 24 44.3-44.7-21.7-33.5 36.6 5.9-50.1-44.7-21.7 48.3-9.2 5.9-49.9zM2422.3 2759.5l24 44.3 48.3-9.2-33.5 36.6 24 44.3-44.7-21.7-33.5 36.7 5.9-50.1-44.7-21.7 48.3-9.3 5.9-49.9zM1853.3 2868.4l24 44.3 48.3-9.2-33.5 36.6 24 44.3-44.7-21.7-33.5 36.7 5.9-50.1-44.7-21.7 48.3-9.2 5.9-50zM2232.7 2795.8l24 44.3 48.3-9.3-33.5 36.7 24 44.3-44.7-21.7-33.5 36.7 5.9-50.1-44.7-21.7 48.3-9.3 5.9-49.9z"/><g><path class="st5" d="M2657.6 1789.2l45.5-118.9c7.6-22.3 59.9-24.8 116.8-5.5s97 53 89.5 75.3l-36.1 122.1c-6.2 18.5-78.8 53.9-138.3 33.7-59.6-20.1-83.7-88.2-77.4-106.7z"/><path class="st5" d="M2788.9 1756.2s31.1 51.7 102.9 43.3l14.7-42.3-117.6-1zM3084.9 1515.9s24-24.6 64.2-10.9c40.3 13.7 58.1 48 42.7 86-20.9 51.7-78.3 79.8-142.4 30.2l35.5-105.3zm-388-131.6s-4-34.1-44.3-47.7c-40.3-13.7-75.3 2.8-86.2 42.3-14.8 53.8 13.6 111 94.6 110.6l35.9-105.2z"/><path class="st5" d="M2692.3 1368.4c2.6.2 94.7 5 131.3-98.3 0 0 61.8 166.9 277.9 235.5-2.6 21.4-7.6 43-14.8 64.5-48.1 142.1-181.5 225.4-297.7 186.1-116.2-39.3-171.5-186.6-123.4-328.6 7-21.1 16.1-41 26.7-59.2z"/></g><path class="st4" d="M2633.6 1852.1c.1-.3.2-.6.3-.8l23.7-62c-6.2 18.5 34.4 57.4 94 77.5 59.5 20.1 115.5 13.9 121.7-4.5l-18.8 63.7c-.3.8-.6 1.6-1 2.3 127.1 51.8 328.5 159.7 376.7 336.2 71.7 262.9 2.1 695.5-202 825.7-117.7 75.1-489-76.5-732.2-239.8-51.3-89.2-41.4-224.8 149.3-255.8 42.3 30.8 218.5 114.4 276.1 138.7l-173.7-891.2c31.7 1 60.6 4.8 85.9 10z"/><g><path class="st6" d="M2877.8 1450.8l-45.3 102.6c-1.6 3.5-.1 7.6 3.3 9.3 6.3 3.2 15.4 7.7 15.4 7.7M3122.6 1570.5c12.2-2.9 29.7 3 41.9 10M2631.3 1365.6c10.6 24.9 10.6 50 3.5 75.1M2639.8 1405.8c-8-9.7-25.4-15.6-39.4-17.4M3153.6 1543.6c-23.5 13.5-38.7 33.4-48.3 57.7M2906.5 1611.3s-30.3 46.4-84 29.4M2952.3 1446.7s45.3-9.3 60.6 29.4M2839.3 1413.4s-30.9-34.4-66.2-12.4"/></g><g><path class="st1" d="M2962.5 1500.2c7.2 2.4 10.6 11.8 7.6 21-3.1 9.2-11.4 14.6-18.6 12.2-7.2-2.4-10.6-11.8-7.6-20.9 3.1-9.2 11.4-14.7 18.6-12.3zM2794.1 1444.1c7.2 2.4 10.6 11.8 7.6 21s-11.4 14.6-18.6 12.2c-7.2-2.4-10.6-11.8-7.6-21 3-9.1 11.4-14.6 18.6-12.2z"/></g><path clip-rule="evenodd" d="M2978.2 2296.3c2.6-7.6-1.5-15.8-9.1-18.4-36.4-12.3-134.8-45.6-171.2-57.9-7.6-2.6-15.8 1.5-18.4 9.1-4.7 13.8-11.9 35.1-16.6 48.9-2.6 7.6 1.5 15.8 9.1 18.4 36.4 12.3 134.8 45.6 171.2 57.9 7.6 2.6 15.8-1.5 18.4-9.1 4.8-13.8 11.9-35.1 16.6-48.9z" fill="#efc2e9" fill-rule="evenodd"/><path class="st6" d="M2721.3 2733.3c8.2 4.6 132.8 58.6 187.4 53 0 0 57-123 87.4-323.2"/><g><path class="st5" d="M1129 1998.9c-11.8 3.1-24.5-.2-33.3-8.7-13.7-13.4-26.7-35.7 0-61.4 55.9-53.8 200-58.8 210.1-11.7 9.6 45-64.7 59.4-98.2 63.6-12.5 1.6-24.9 4-37.1 7.2-13 3.5-29.5 7.9-41.5 11z"/><path class="st5" d="M1067.9 2017.6c41.4-40.9 178.3-65.3 191.4-14.5 18.1 70.3-127.7 91.9-146.2 96.2-41.1 9.4-94.8-32.7-45.2-81.7z"/><path class="st5" d="M1221.1 2217.4s-160-17.8-132.1-96.3c19.7-55.6 160.2-92.2 179.6-37.9 0 0 13.4 36.9-61.2 62.9M2295.9 2850.4c-135.9-90.9-231.8-185.6-221.7-246.6 1.6-9.9 12.1-28.6 27.1-29.6 0 0-44.7-63.5 21.1-89.1-6.6-35 23.7-71.2 62-55.3 34.2 14.2 63.6 54.3 112 76.5 6.4-4.4 33.2-168.1 122.7-158.7 45.7 4.8 49 44.9 19.1 82.3-36.1 45-47.7 121.3 3.9 162.4l3.3 2.3c-101.8 75.7-137.8 198.1-149.5 255.8z"/></g><path class="st9" d="M1104.4 1994.7s70.3-27.7 123-17M1102.2 2100.6s39.4-46 133.9-44"/><path clip-rule="evenodd" d="M1218 2142.1s-23.4 8.7-40.4 12.6" fill="#24245b" fill-rule="evenodd" stroke="#000" stroke-linecap="round" stroke-linejoin="round" stroke-miterlimit="12.5" stroke-width="8.333"/><path class="st9" d="M2122.3 2487.2s24.2 45.3 98.2 79.8M2101.2 2574.2s36.3 49 81.9 73.4"/></g></g></svg>